<?xml version="1.0" encoding="UTF-8"?>
<svg id="Layer_1" data-name="Layer 1" xmlns="http://www.w3.org/2000/svg" viewBox="0 0 511.88 512.05">
  <defs>
    <style>
      .cls-1 {
        fill: #838283;
        stroke-width: 0px;
      }
    </style>
  </defs>
  <path class="cls-1" d="M497.58,298.2c-100.4,42.9-147.7,153.2-159.9,186.5-3,7.4-8,13.9-14.4,18.7-6.5,4.8-14.1,7.7-22.2,8.4h-9.8c-10.9.9-21.9-.7-32.1-4.5-10.2-3.9-19.4-10-27-17.8-7.6-7.9-13.2-17.3-16.6-27.6-3.4-10.3-4.5-21.3-3.1-32.1,4.2-31.2,14.4-61.3,30-88.6H65.48c-17.3,0-33.9-6.8-46.2-19C6.98,310.1.08,293.6.08,276.4v-7c-.1-.6-.1-1.2,0-1.9,0-6.1,2.1-12.1,3.3-17.9v-1.9c4.7-18.7,15.8-35.2,31.4-46.6,2.8-2.1,5.8-3.9,8.9-5.4-2.6-14-2.1-28.5,1.6-42.3s10.4-26.6,19.7-37.5c8-9.7,17.8-17.8,28.8-23.8-.2-10.6,1.4-21.2,4.7-31.2,5.1-15,14.2-28.4,26.3-38.7C146.07,6.8,172.07-1,198.37.1h127.5c16.7,0,33.2,3.9,48.2,11.4,15,7.4,28,18.2,38.1,31.5,6,7.9,13.7,14.4,22.6,18.8s18.8,6.7,28.7,6.6h25c6.2,0,12.2,2.5,16.6,6.8,4.3,4.4,6.8,10.3,6.8,16.5v185.1c0,4.6-1.4,9.1-3.9,12.9-2.6,3.8-6.2,6.8-10.4,8.5h0ZM464.98,115h-1.4c-17.2-.2-34.2-4.3-49.5-12.2-15.3-7.8-28.6-19-38.9-32.8-5.8-7.3-13.2-13.2-21.7-17.3-8.5-4-17.7-6.1-27.1-6h-126.4c-15.6-1.2-31.2,2.7-44.6,11-5.7,4.8-9.9,11.1-12.2,18.2-2.5,8.5-2.5,17.4,0,25.9,1.5,6,.6,12.3-2.6,17.6-3.2,5.3-8.3,9.1-14.3,10.6-9,2.4-17.2,7.3-23.4,14.2-4.6,5.6-7.9,12.2-9.6,19.3-1.7,7-1.9,14.4-.5,21.5h21.1c6.2,0,12.2,2.5,16.6,6.8,4.4,4.4,6.9,10.3,6.9,16.5s-2.5,12.1-6.9,16.5-10.4,6.8-16.6,6.8h-38c-4.6.8-9,2.4-12.9,4.9-6.6,5-11.3,12.1-13.4,20,0,4.4-1.6,8.9-2.3,13.5.1,1,.1,2,0,3v2.3c0,4.9,1.9,9.6,5.4,13.1s8.2,5.5,13.1,5.5h206.2c5.8.1,11.5,1.8,16.4,5,4.9,3.1,8.8,7.6,11.2,12.9,2.4,5.3,3.4,11.1,2.6,16.9-.7,5.8-3.1,11.2-6.8,15.7-20.4,26.9-33.4,58.6-37.5,92.1-.6,4-.3,8,1,11.9,1.2,3.8,3.3,7.3,6.2,10.2,2.8,2.9,6.3,5.1,10.1,6.4,3.8,1.3,7.9,1.8,11.9,1.3h7.5c14.5-38.5,65-151.1,170.5-203.7l-.1-147.6h0Z"/>
</svg>