<?xml version="1.0" encoding="utf-8"?>
<!-- Generator: Adobe Illustrator 28.1.0, SVG Export Plug-In . SVG Version: 6.00 Build 0)  -->
<svg version="1.1" id="Layer_1" xmlns="http://www.w3.org/2000/svg" xmlns:xlink="http://www.w3.org/1999/xlink" x="0px" y="0px"
	 viewBox="0 0 512 512" style="enable-background:new 0 0 512 512;" xml:space="preserve">
<style type="text/css">
	.st0{fill:#838283;}
</style>
<g>
	<path class="st0" d="M14.3,213.8C114.7,170.9,162,60.6,174.2,27.3c3-7.4,8-13.9,14.4-18.7c6.5-4.8,14.1-7.7,22.2-8.4h9.8
		c10.9-0.9,21.9,0.7,32.1,4.5c10.2,3.9,19.4,10,27,17.8c7.6,7.9,13.2,17.3,16.6,27.6c3.4,10.3,4.5,21.3,3.1,32.1
		c-4.2,31.2-14.4,61.3-30,88.6h177c17.3,0,33.9,6.8,46.2,19c12.3,12.1,19.2,28.6,19.2,45.8v7c0.1,0.6,0.1,1.2,0,1.9
		c0,6.1-2.1,12.1-3.3,17.9v1.9c-4.7,18.7-15.8,35.2-31.4,46.6c-2.8,2.1-5.8,3.9-8.9,5.4c2.6,14,2.1,28.5-1.6,42.3
		c-3.7,13.8-10.4,26.6-19.7,37.5c-8,9.7-17.8,17.8-28.8,23.8c0.2,10.6-1.4,21.2-4.7,31.2c-5.1,15-14.2,28.4-26.3,38.7
		c-21.3,15.4-47.3,23.2-73.6,22.1H186c-16.7,0-33.2-3.9-48.2-11.4c-15-7.4-28-18.2-38.1-31.5c-6-7.9-13.7-14.4-22.6-18.8
		c-8.9-4.4-18.8-6.7-28.7-6.6H23.4c-6.2,0-12.2-2.5-16.6-6.8C2.5,432.4,0,426.5,0,420.3V235.2c0-4.6,1.4-9.1,3.9-12.9
		C6.5,218.5,10.1,215.5,14.3,213.8L14.3,213.8z M46.9,397h1.4c17.2,0.2,34.2,4.3,49.5,12.2c15.3,7.8,28.6,19,38.9,32.8
		c5.8,7.3,13.2,13.2,21.7,17.3c8.5,4,17.7,6.1,27.1,6h126.4c15.6,1.2,31.2-2.7,44.6-11c5.7-4.8,9.9-11.1,12.2-18.2
		c2.5-8.5,2.5-17.4,0-25.9c-1.5-6-0.6-12.3,2.6-17.6c3.2-5.3,8.3-9.1,14.3-10.6c9-2.4,17.2-7.3,23.4-14.2c4.6-5.6,7.9-12.2,9.6-19.3
		c1.7-7,1.9-14.4,0.5-21.5h-21.1c-6.2,0-12.2-2.5-16.6-6.8c-4.4-4.4-6.9-10.3-6.9-16.5c0-6.2,2.5-12.1,6.9-16.5
		c4.4-4.4,10.4-6.8,16.6-6.8h38c4.6-0.8,9-2.4,12.9-4.9c6.6-5,11.3-12.1,13.4-20c0-4.4,1.6-8.9,2.3-13.5c-0.1-1-0.1-2,0-3v-2.3
		c0-4.9-1.9-9.6-5.4-13.1c-3.5-3.5-8.2-5.5-13.1-5.5H239.9c-5.8-0.1-11.5-1.8-16.4-5c-4.9-3.1-8.8-7.6-11.2-12.9
		c-2.4-5.3-3.4-11.1-2.6-16.9c0.7-5.8,3.1-11.2,6.8-15.7c20.4-26.9,33.4-58.6,37.5-92.1c0.6-4,0.3-8-1-11.9
		c-1.2-3.8-3.3-7.3-6.2-10.2c-2.8-2.9-6.3-5.1-10.1-6.4c-3.8-1.3-7.9-1.8-11.9-1.3h-7.5c-14.5,38.5-65,151.1-170.5,203.7L46.9,397
		L46.9,397z"/>
</g>
</svg>
