<svg xmlns="http://www.w3.org/2000/svg" version="1.1" xmlns:xlink="http://www.w3.org/1999/xlink" width="512" height="512" x="0" y="0" viewBox="0 0 512 512" style="enable-background:new 0 0 512 512" xml:space="preserve" class=""><g><path fill-rule="evenodd" d="M257.07 66.5c0 8.28-6.72 15-15 15s-15-6.72-15-15V16c0-8.28 6.72-15 15-15s15 6.72 15 15zm62.07-42.06c2.14-7.99-2.61-16.2-10.61-18.34-7.99-2.14-16.2 2.61-18.34 10.61l-13.07 48.78c-2.14 7.99 2.61 16.2 10.61 18.34 7.99 2.14 16.2-2.61 18.34-10.61zm57.75 24.25c4.14-7.15 1.7-16.31-5.45-20.45s-16.31-1.7-20.45 5.45l-25.25 43.74c-4.14 7.15-1.7 16.31 5.45 20.45s16.31 1.7 20.45-5.45zm49.57 38.36c5.86-5.86 5.86-15.35 0-21.21s-15.35-5.86-21.21 0l-35.71 35.71c-5.86 5.86-5.86 15.35 0 21.21s15.35 5.86 21.21 0zm37.86 49.84c7.15-4.11 9.62-13.24 5.51-20.39s-13.24-9.62-20.39-5.51l-43.74 25.25c-7.15 4.11-9.62 13.24-5.51 20.39s13.24 9.62 20.39 5.51zm23.77 58.02c7.99-2.14 12.74-10.35 10.61-18.34-2.14-7.99-10.35-12.74-18.34-10.61l-48.78 13.07c-7.99 2.14-12.74 10.35-10.61 18.34 2.14 7.99 10.35 12.74 18.34 10.61zm7.91 62.16c8.28 0 15-6.72 15-15s-6.72-15-15-15h-50.5c-8.28 0-15 6.72-15 15s6.72 15 15 15zm-8.44 62.07c7.99 2.14 16.2-2.61 18.34-10.61 2.14-7.99-2.61-16.2-10.61-18.34l-48.78-13.07c-7.99-2.14-16.2 2.61-18.34 10.61-2.14 7.99 2.61 16.2 10.61 18.34zm-24.25 57.75c7.15 4.14 16.31 1.7 20.45-5.45s1.7-16.31-5.45-20.45l-43.74-25.25c-7.15-4.14-16.31-1.7-20.45 5.45s-1.7 16.31 5.45 20.45zm-38.36 49.57c5.86 5.86 15.35 5.86 21.21 0s5.86-15.35 0-21.21l-35.71-35.71c-5.86-5.86-15.35-5.86-21.21 0s-5.86 15.35 0 21.21zm-49.84 37.86c4.11 7.15 13.24 9.62 20.39 5.51s9.62-13.24 5.51-20.39l-25.25-43.74c-4.11-7.15-13.24-9.62-20.39-5.51s-9.62 13.24-5.51 20.39zm-58.02 23.77c2.14 7.99 10.35 12.74 18.34 10.61 7.99-2.14 12.74-10.35 10.61-18.34l-13.07-48.78c-2.14-7.99-10.35-12.74-18.34-10.61-7.99 2.14-12.74 10.35-10.61 18.34zM254.93 496c0 8.28 6.72 15 15 15s15-6.72 15-15v-50.5c0-8.28-6.72-15-15-15s-15 6.72-15 15zm-62.07-8.44c-2.14 7.99 2.61 16.2 10.61 18.34 7.99 2.14 16.2-2.61 18.34-10.61l13.07-48.78c2.14-7.99-2.61-16.2-10.61-18.34-7.99-2.14-16.2 2.61-18.34 10.61zm-57.75-24.25c-4.14 7.15-1.7 16.31 5.45 20.45s16.31 1.7 20.45-5.45l25.25-43.74c4.14-7.15 1.7-16.31-5.45-20.45s-16.31-1.7-20.45 5.45zm-49.57-38.36c-5.86 5.86-5.86 15.35 0 21.21s15.35 5.86 21.21 0l35.71-35.71c5.86-5.86 5.86-15.35 0-21.21s-15.35-5.86-21.21 0zm-37.86-49.84c-7.15 4.11-9.62 13.24-5.51 20.39s13.24 9.62 20.39 5.51l43.74-25.25c7.15-4.11 9.62-13.24 5.51-20.39s-13.24-9.62-20.39-5.51zm-23.77-58.02c-7.99 2.14-12.74 10.35-10.61 18.34 2.14 7.99 10.35 12.74 18.34 10.61l48.78-13.07c7.99-2.14 12.74-10.35 10.61-18.34-2.14-7.99-10.35-12.74-18.34-10.61zM16 254.93c-8.28 0-15 6.72-15 15s6.72 15 15 15h50.5c8.28 0 15-6.72 15-15s-6.72-15-15-15zm8.44-62.07c-7.99-2.14-16.2 2.61-18.34 10.61-2.14 7.99 2.61 16.2 10.61 18.34l48.78 13.07c7.99 2.14 16.2-2.61 18.34-10.61 2.14-7.99-2.61-16.2-10.61-18.34zm24.25-57.75c-7.15-4.14-16.31-1.7-20.45 5.45s-1.7 16.31 5.45 20.45l43.74 25.25c7.15 4.14 16.31 1.7 20.45-5.45s1.7-16.31-5.45-20.45zm38.36-49.57c-5.86-5.86-15.35-5.86-21.21 0s-5.86 15.35 0 21.21l35.71 35.71c5.86 5.86 15.35 5.86 21.21 0s5.86-15.35 0-21.21zm49.84-37.86c-4.11-7.15-13.24-9.62-20.39-5.51s-9.62 13.24-5.51 20.39l25.25 43.74c4.11 7.15 13.24 9.62 20.39 5.51s9.62-13.24 5.51-20.39zm58.02-23.77c-2.14-7.99-10.35-12.74-18.34-10.61-7.99 2.14-12.74 10.35-10.61 18.34l13.07 48.78c2.14 7.99 10.35 12.74 18.34 10.61 7.99-2.14 12.74-10.35 10.61-18.34z" clip-rule="evenodd" fill="#838283" opacity="1" data-original="#000000" class=""></path></g></svg>