<svg xmlns="http://www.w3.org/2000/svg" version="1.1" xmlns:xlink="http://www.w3.org/1999/xlink" width="512" height="512" x="0" y="0" viewBox="0 0 44 60" style="enable-background:new 0 0 512 512" xml:space="preserve" class=""><g><g fill="#000" fill-rule="nonzero"><path d="M19.231 58H14a1 1 0 0 0 0 2h16a1 1 0 0 0 0-2h-5.231C30.224 53.217 44 39.416 44 22 44 9.85 34.15 0 22 0S0 9.85 0 22c0 17.416 13.776 31.217 19.231 36zM2 22C2 10.954 10.954 2 22 2s20 8.954 20 20c0 18.261-16.591 32.9-20 35.717C18.591 54.9 2 40.261 2 22z" fill="#838283" opacity="1" data-original="#000000" class=""></path><path d="M40 22c0-9.941-8.059-18-18-18S4 12.059 4 22s8.059 18 18 18c9.936-.012 17.988-8.064 18-18zM6 22c0-8.837 7.163-16 16-16s16 7.163 16 16-7.163 16-16 16c-8.832-.01-15.99-7.168-16-16z" fill="#838283" opacity="1" data-original="#000000" class=""></path><path d="M23.737 33.43a6.327 6.327 0 0 0 2.473.57c1.44.09 2.79-.712 3.4-2.02a5.631 5.631 0 0 0-.949-5.624 12.858 12.858 0 0 1-1.234-1.956C26.334 22.442 24.975 20 22 20s-4.334 2.442-5.427 4.4c-.351.686-.763 1.34-1.231 1.952a5.631 5.631 0 0 0-.949 5.624A3.513 3.513 0 0 0 17.79 34a6.327 6.327 0 0 0 2.473-.57A4.482 4.482 0 0 1 22 33a4.482 4.482 0 0 1 1.737.43zm-4.21-1.86a4.482 4.482 0 0 1-1.737.43 1.56 1.56 0 0 1-1.584-.863 3.635 3.635 0 0 1 .665-3.493 14.485 14.485 0 0 0 1.45-2.268c1.17-2.1 2-3.376 3.679-3.376s2.509 1.276 3.679 3.376c.412.8.897 1.559 1.45 2.268a3.635 3.635 0 0 1 .665 3.493A1.56 1.56 0 0 1 26.21 32a4.482 4.482 0 0 1-1.737-.43A6.327 6.327 0 0 0 22 31a6.327 6.327 0 0 0-2.473.57zM17.3 19.949c.185 0 .369-.016.551-.047 2.172-.377 3.558-2.893 3.087-5.609s-2.618-4.623-4.795-4.245a3.687 3.687 0 0 0-2.606 2.052 5.73 5.73 0 0 0-.478 3.562c.43 2.481 2.268 4.287 4.241 4.287zM15.318 13c.218-.491.65-.854 1.17-.985.073-.013.146-.02.22-.019 1 0 2 1.142 2.263 2.634.277 1.6-.391 3.112-1.458 3.3s-2.205-1.013-2.484-2.615A3.781 3.781 0 0 1 15.318 13zM9.946 26.35c.55.367 1.196.566 1.858.572.316 0 .63-.048.931-.142a3.781 3.781 0 0 0 2.157-4.858 3.782 3.782 0 0 0-4.531-2.781A3.781 3.781 0 0 0 8.206 24a4.31 4.31 0 0 0 1.74 2.35zm1.009-5.3c.106-.033.216-.05.327-.05.827.1 1.505.704 1.7 1.514a1.83 1.83 0 0 1-.839 2.355c-.38.103-.788.03-1.109-.2a2.339 2.339 0 0 1-.917-1.266 1.832 1.832 0 0 1 .838-2.353zM26.182 19.9c.182.031.366.047.55.047 1.975 0 3.813-1.806 4.244-4.292A5.743 5.743 0 0 0 30.5 12.1a3.689 3.689 0 0 0-2.61-2.047c-2.182-.379-4.325 1.528-4.795 4.245a5.731 5.731 0 0 0 .478 3.562 3.69 3.69 0 0 0 2.609 2.04zm-1.119-5.268c.259-1.49 1.263-2.632 2.263-2.632.074 0 .148.006.221.019.52.131.952.494 1.17.985.336.721.437 1.53.288 2.312-.277 1.6-1.408 2.8-2.482 2.615a1.741 1.741 0 0 1-1.17-.986 3.77 3.77 0 0 1-.29-2.311zM29.108 21.921a3.781 3.781 0 0 0 2.157 4.858c.301.094.615.142.931.142a3.406 3.406 0 0 0 1.858-.572A4.31 4.31 0 0 0 35.794 24a3.781 3.781 0 0 0-2.155-4.858 3.782 3.782 0 0 0-4.531 2.779zm1.911.594c.322-1.036 1.257-1.706 2.026-1.465a1.832 1.832 0 0 1 .839 2.355 2.339 2.339 0 0 1-.917 1.266c-.32.23-.728.303-1.109.2a1.83 1.83 0 0 1-.839-2.356z" fill="#838283" opacity="1" data-original="#000000" class=""></path></g></g></svg>